ISO-10303-21;
HEADER;
/* Generated by software containing ST-Developer
 * from STEP Tools, Inc. (www.steptools.com) 
 */

FILE_DESCRIPTION(
/* description */ (''),
/* implementation_level */ '2;1');

FILE_NAME(
/* name */ 'Cerebellum_Headplate_old v2.step',
/* time_stamp */ '2025-10-29T09:46:22+01:00',
/* author */ (''),
/* organization */ (''),
/* preprocessor_version */ 'ST-DEVELOPER v20.1',
/* originating_system */ 'Autodesk Translation Framework v14.17.0.0',
/* authorisation */ '');

FILE_SCHEMA (('AUTOMOTIVE_DESIGN { 1 0 10303 214 3 1 1 }'));
ENDSEC;

DATA;
#10=MECHANICAL_DESIGN_GEOMETRIC_PRESENTATION_REPRESENTATION('',(#13),#436);
#11=SHAPE_REPRESENTATION_RELATIONSHIP('SRR','None',#443,#12);
#12=ADVANCED_BREP_SHAPE_REPRESENTATION('',(#14),#435);
#13=STYLED_ITEM('',(#452),#14);
#14=MANIFOLD_SOLID_BREP('Body1',#256);
#15=FACE_BOUND('',#57,.T.);
#16=FACE_BOUND('',#58,.T.);
#17=FACE_BOUND('',#59,.T.);
#18=FACE_BOUND('',#65,.T.);
#19=FACE_BOUND('',#66,.T.);
#20=FACE_BOUND('',#67,.T.);
#21=CONICAL_SURFACE('',#276,5.25,0.349065850398866);
#22=CIRCLE('',#274,0.999999999999999);
#23=CIRCLE('',#275,0.999999999999999);
#24=CIRCLE('',#277,5.25);
#25=CIRCLE('',#278,4.8860297657338);
#26=CIRCLE('',#280,6.);
#27=CIRCLE('',#281,6.);
#28=CIRCLE('',#283,6.);
#29=CIRCLE('',#284,6.);
#30=CIRCLE('',#286,1.);
#31=CIRCLE('',#291,1.);
#32=CYLINDRICAL_SURFACE('',#273,0.999999999999999);
#33=CYLINDRICAL_SURFACE('',#279,6.);
#34=CYLINDRICAL_SURFACE('',#282,6.);
#35=CYLINDRICAL_SURFACE('',#290,1.);
#36=FACE_OUTER_BOUND('',#49,.T.);
#37=FACE_OUTER_BOUND('',#50,.T.);
#38=FACE_OUTER_BOUND('',#51,.T.);
#39=FACE_OUTER_BOUND('',#52,.T.);
#40=FACE_OUTER_BOUND('',#53,.T.);
#41=FACE_OUTER_BOUND('',#54,.T.);
#42=FACE_OUTER_BOUND('',#55,.T.);
#43=FACE_OUTER_BOUND('',#56,.T.);
#44=FACE_OUTER_BOUND('',#60,.T.);
#45=FACE_OUTER_BOUND('',#61,.T.);
#46=FACE_OUTER_BOUND('',#62,.T.);
#47=FACE_OUTER_BOUND('',#63,.T.);
#48=FACE_OUTER_BOUND('',#64,.T.);
#49=EDGE_LOOP('',(#169,#170,#171,#172));
#50=EDGE_LOOP('',(#173,#174,#175,#176));
#51=EDGE_LOOP('',(#177,#178,#179,#180));
#52=EDGE_LOOP('',(#181,#182,#183,#184));
#53=EDGE_LOOP('',(#185,#186,#187,#188));
#54=EDGE_LOOP('',(#189,#190,#191,#192));
#55=EDGE_LOOP('',(#193,#194,#195,#196));
#56=EDGE_LOOP('',(#197,#198,#199,#200,#201,#202,#203,#204));
#57=EDGE_LOOP('',(#205));
#58=EDGE_LOOP('',(#206));
#59=EDGE_LOOP('',(#207));
#60=EDGE_LOOP('',(#208,#209,#210,#211));
#61=EDGE_LOOP('',(#212,#213,#214,#215));
#62=EDGE_LOOP('',(#216,#217,#218,#219));
#63=EDGE_LOOP('',(#220,#221,#222,#223));
#64=EDGE_LOOP('',(#224,#225,#226,#227,#228,#229,#230,#231));
#65=EDGE_LOOP('',(#232));
#66=EDGE_LOOP('',(#233));
#67=EDGE_LOOP('',(#234));
#68=LINE('',#368,#91);
#69=LINE('',#370,#92);
#70=LINE('',#372,#93);
#71=LINE('',#373,#94);
#72=LINE('',#377,#95);
#73=LINE('',#379,#96);
#74=LINE('',#381,#97);
#75=LINE('',#382,#98);
#76=LINE('',#384,#99);
#77=LINE('',#385,#100);
#78=LINE('',#390,#101);
#79=LINE('',#396,#102);
#80=LINE('',#403,#103);
#81=LINE('',#408,#104);
#82=LINE('',#412,#105);
#83=LINE('',#414,#106);
#84=LINE('',#415,#107);
#85=LINE('',#420,#108);
#86=LINE('',#421,#109);
#87=LINE('',#424,#110);
#88=LINE('',#425,#111);
#89=LINE('',#427,#112);
#90=LINE('',#431,#113);
#91=VECTOR('',#297,10.);
#92=VECTOR('',#298,10.);
#93=VECTOR('',#299,10.);
#94=VECTOR('',#300,10.);
#95=VECTOR('',#303,10.);
#96=VECTOR('',#304,10.);
#97=VECTOR('',#305,10.);
#98=VECTOR('',#306,10.);
#99=VECTOR('',#309,10.);
#100=VECTOR('',#310,10.);
#101=VECTOR('',#315,0.999999999999999);
#102=VECTOR('',#322,5.25);
#103=VECTOR('',#331,10.);
#104=VECTOR('',#336,10.);
#105=VECTOR('',#341,10.);
#106=VECTOR('',#342,10.);
#107=VECTOR('',#343,10.);
#108=VECTOR('',#348,10.);
#109=VECTOR('',#349,10.);
#110=VECTOR('',#352,10.);
#111=VECTOR('',#353,10.);
#112=VECTOR('',#356,10.);
#113=VECTOR('',#361,1.);
#114=VERTEX_POINT('',#366);
#115=VERTEX_POINT('',#367);
#116=VERTEX_POINT('',#369);
#117=VERTEX_POINT('',#371);
#118=VERTEX_POINT('',#375);
#119=VERTEX_POINT('',#376);
#120=VERTEX_POINT('',#378);
#121=VERTEX_POINT('',#380);
#122=VERTEX_POINT('',#387);
#123=VERTEX_POINT('',#389);
#124=VERTEX_POINT('',#393);
#125=VERTEX_POINT('',#395);
#126=VERTEX_POINT('',#399);
#127=VERTEX_POINT('',#401);
#128=VERTEX_POINT('',#405);
#129=VERTEX_POINT('',#407);
#130=VERTEX_POINT('',#411);
#131=VERTEX_POINT('',#413);
#132=VERTEX_POINT('',#416);
#133=VERTEX_POINT('',#419);
#134=VERTEX_POINT('',#423);
#135=VERTEX_POINT('',#429);
#136=EDGE_CURVE('',#114,#115,#68,.T.);
#137=EDGE_CURVE('',#116,#115,#69,.T.);
#138=EDGE_CURVE('',#117,#116,#70,.T.);
#139=EDGE_CURVE('',#117,#114,#71,.T.);
#140=EDGE_CURVE('',#118,#119,#72,.T.);
#141=EDGE_CURVE('',#120,#118,#73,.T.);
#142=EDGE_CURVE('',#120,#121,#74,.T.);
#143=EDGE_CURVE('',#119,#121,#75,.T.);
#144=EDGE_CURVE('',#117,#120,#76,.T.);
#145=EDGE_CURVE('',#121,#116,#77,.T.);
#146=EDGE_CURVE('',#122,#122,#22,.T.);
#147=EDGE_CURVE('',#122,#123,#78,.T.);
#148=EDGE_CURVE('',#123,#123,#23,.T.);
#149=EDGE_CURVE('',#124,#124,#24,.T.);
#150=EDGE_CURVE('',#124,#125,#79,.T.);
#151=EDGE_CURVE('',#125,#125,#25,.F.);
#152=EDGE_CURVE('',#126,#118,#26,.T.);
#153=EDGE_CURVE('',#127,#119,#27,.T.);
#154=EDGE_CURVE('',#126,#127,#80,.T.);
#155=EDGE_CURVE('',#114,#128,#28,.T.);
#156=EDGE_CURVE('',#128,#129,#81,.T.);
#157=EDGE_CURVE('',#115,#129,#29,.T.);
#158=EDGE_CURVE('',#126,#130,#82,.T.);
#159=EDGE_CURVE('',#131,#130,#83,.T.);
#160=EDGE_CURVE('',#131,#128,#84,.T.);
#161=EDGE_CURVE('',#132,#132,#30,.T.);
#162=EDGE_CURVE('',#131,#133,#85,.T.);
#163=EDGE_CURVE('',#133,#129,#86,.T.);
#164=EDGE_CURVE('',#130,#134,#87,.T.);
#165=EDGE_CURVE('',#133,#134,#88,.T.);
#166=EDGE_CURVE('',#134,#127,#89,.T.);
#167=EDGE_CURVE('',#135,#135,#31,.T.);
#168=EDGE_CURVE('',#135,#132,#90,.T.);
#169=ORIENTED_EDGE('',*,*,#136,.T.);
#170=ORIENTED_EDGE('',*,*,#137,.F.);
#171=ORIENTED_EDGE('',*,*,#138,.F.);
#172=ORIENTED_EDGE('',*,*,#139,.T.);
#173=ORIENTED_EDGE('',*,*,#140,.F.);
#174=ORIENTED_EDGE('',*,*,#141,.F.);
#175=ORIENTED_EDGE('',*,*,#142,.T.);
#176=ORIENTED_EDGE('',*,*,#143,.F.);
#177=ORIENTED_EDGE('',*,*,#144,.F.);
#178=ORIENTED_EDGE('',*,*,#138,.T.);
#179=ORIENTED_EDGE('',*,*,#145,.F.);
#180=ORIENTED_EDGE('',*,*,#142,.F.);
#181=ORIENTED_EDGE('',*,*,#146,.F.);
#182=ORIENTED_EDGE('',*,*,#147,.T.);
#183=ORIENTED_EDGE('',*,*,#148,.T.);
#184=ORIENTED_EDGE('',*,*,#147,.F.);
#185=ORIENTED_EDGE('',*,*,#149,.F.);
#186=ORIENTED_EDGE('',*,*,#150,.T.);
#187=ORIENTED_EDGE('',*,*,#151,.T.);
#188=ORIENTED_EDGE('',*,*,#150,.F.);
#189=ORIENTED_EDGE('',*,*,#152,.T.);
#190=ORIENTED_EDGE('',*,*,#140,.T.);
#191=ORIENTED_EDGE('',*,*,#153,.F.);
#192=ORIENTED_EDGE('',*,*,#154,.F.);
#193=ORIENTED_EDGE('',*,*,#155,.T.);
#194=ORIENTED_EDGE('',*,*,#156,.T.);
#195=ORIENTED_EDGE('',*,*,#157,.F.);
#196=ORIENTED_EDGE('',*,*,#136,.F.);
#197=ORIENTED_EDGE('',*,*,#158,.T.);
#198=ORIENTED_EDGE('',*,*,#159,.F.);
#199=ORIENTED_EDGE('',*,*,#160,.T.);
#200=ORIENTED_EDGE('',*,*,#155,.F.);
#201=ORIENTED_EDGE('',*,*,#139,.F.);
#202=ORIENTED_EDGE('',*,*,#144,.T.);
#203=ORIENTED_EDGE('',*,*,#141,.T.);
#204=ORIENTED_EDGE('',*,*,#152,.F.);
#205=ORIENTED_EDGE('',*,*,#148,.F.);
#206=ORIENTED_EDGE('',*,*,#151,.F.);
#207=ORIENTED_EDGE('',*,*,#161,.F.);
#208=ORIENTED_EDGE('',*,*,#160,.F.);
#209=ORIENTED_EDGE('',*,*,#162,.T.);
#210=ORIENTED_EDGE('',*,*,#163,.T.);
#211=ORIENTED_EDGE('',*,*,#156,.F.);
#212=ORIENTED_EDGE('',*,*,#159,.T.);
#213=ORIENTED_EDGE('',*,*,#164,.T.);
#214=ORIENTED_EDGE('',*,*,#165,.F.);
#215=ORIENTED_EDGE('',*,*,#162,.F.);
#216=ORIENTED_EDGE('',*,*,#158,.F.);
#217=ORIENTED_EDGE('',*,*,#154,.T.);
#218=ORIENTED_EDGE('',*,*,#166,.F.);
#219=ORIENTED_EDGE('',*,*,#164,.F.);
#220=ORIENTED_EDGE('',*,*,#167,.F.);
#221=ORIENTED_EDGE('',*,*,#168,.T.);
#222=ORIENTED_EDGE('',*,*,#161,.T.);
#223=ORIENTED_EDGE('',*,*,#168,.F.);
#224=ORIENTED_EDGE('',*,*,#163,.F.);
#225=ORIENTED_EDGE('',*,*,#165,.T.);
#226=ORIENTED_EDGE('',*,*,#166,.T.);
#227=ORIENTED_EDGE('',*,*,#153,.T.);
#228=ORIENTED_EDGE('',*,*,#143,.T.);
#229=ORIENTED_EDGE('',*,*,#145,.T.);
#230=ORIENTED_EDGE('',*,*,#137,.T.);
#231=ORIENTED_EDGE('',*,*,#157,.T.);
#232=ORIENTED_EDGE('',*,*,#146,.T.);
#233=ORIENTED_EDGE('',*,*,#149,.T.);
#234=ORIENTED_EDGE('',*,*,#167,.T.);
#235=PLANE('',#270);
#236=PLANE('',#271);
#237=PLANE('',#272);
#238=PLANE('',#285);
#239=PLANE('',#287);
#240=PLANE('',#288);
#241=PLANE('',#289);
#242=PLANE('',#292);
#243=ADVANCED_FACE('',(#36),#235,.T.);
#244=ADVANCED_FACE('',(#37),#236,.T.);
#245=ADVANCED_FACE('',(#38),#237,.T.);
#246=ADVANCED_FACE('',(#39),#32,.F.);
#247=ADVANCED_FACE('',(#40),#21,.F.);
#248=ADVANCED_FACE('',(#41),#33,.T.);
#249=ADVANCED_FACE('',(#42),#34,.T.);
#250=ADVANCED_FACE('',(#43,#15,#16,#17),#238,.F.);
#251=ADVANCED_FACE('',(#44),#239,.T.);
#252=ADVANCED_FACE('',(#45),#240,.T.);
#253=ADVANCED_FACE('',(#46),#241,.T.);
#254=ADVANCED_FACE('',(#47),#35,.F.);
#255=ADVANCED_FACE('',(#48,#18,#19,#20),#242,.T.);
#256=CLOSED_SHELL('',(#243,#244,#245,#246,#247,#248,#249,#250,#251,#252,
#253,#254,#255));
#257=DERIVED_UNIT_ELEMENT(#259,1.);
#258=DERIVED_UNIT_ELEMENT(#438,-3.);
#259=(
MASS_UNIT()
NAMED_UNIT(*)
SI_UNIT(.KILO.,.GRAM.)
);
#260=DERIVED_UNIT((#257,#258));
#261=MEASURE_REPRESENTATION_ITEM('density measure',
POSITIVE_RATIO_MEASURE(7850.),#260);
#262=PROPERTY_DEFINITION_REPRESENTATION(#267,#264);
#263=PROPERTY_DEFINITION_REPRESENTATION(#268,#265);
#264=REPRESENTATION('material name',(#266),#435);
#265=REPRESENTATION('density',(#261),#435);
#266=DESCRIPTIVE_REPRESENTATION_ITEM('Steel','Steel');
#267=PROPERTY_DEFINITION('material property','material name',#445);
#268=PROPERTY_DEFINITION('material property','density of part',#445);
#269=AXIS2_PLACEMENT_3D('',#364,#293,#294);
#270=AXIS2_PLACEMENT_3D('',#365,#295,#296);
#271=AXIS2_PLACEMENT_3D('',#374,#301,#302);
#272=AXIS2_PLACEMENT_3D('',#383,#307,#308);
#273=AXIS2_PLACEMENT_3D('',#386,#311,#312);
#274=AXIS2_PLACEMENT_3D('',#388,#313,#314);
#275=AXIS2_PLACEMENT_3D('',#391,#316,#317);
#276=AXIS2_PLACEMENT_3D('',#392,#318,#319);
#277=AXIS2_PLACEMENT_3D('',#394,#320,#321);
#278=AXIS2_PLACEMENT_3D('',#397,#323,#324);
#279=AXIS2_PLACEMENT_3D('',#398,#325,#326);
#280=AXIS2_PLACEMENT_3D('',#400,#327,#328);
#281=AXIS2_PLACEMENT_3D('',#402,#329,#330);
#282=AXIS2_PLACEMENT_3D('',#404,#332,#333);
#283=AXIS2_PLACEMENT_3D('',#406,#334,#335);
#284=AXIS2_PLACEMENT_3D('',#409,#337,#338);
#285=AXIS2_PLACEMENT_3D('',#410,#339,#340);
#286=AXIS2_PLACEMENT_3D('',#417,#344,#345);
#287=AXIS2_PLACEMENT_3D('',#418,#346,#347);
#288=AXIS2_PLACEMENT_3D('',#422,#350,#351);
#289=AXIS2_PLACEMENT_3D('',#426,#354,#355);
#290=AXIS2_PLACEMENT_3D('',#428,#357,#358);
#291=AXIS2_PLACEMENT_3D('',#430,#359,#360);
#292=AXIS2_PLACEMENT_3D('',#432,#362,#363);
#293=DIRECTION('axis',(0.,0.,1.));
#294=DIRECTION('refdir',(1.,0.,0.));
#295=DIRECTION('center_axis',(0.,1.,0.));
#296=DIRECTION('ref_axis',(-1.,0.,0.));
#297=DIRECTION('',(0.,0.,1.));
#298=DIRECTION('',(-1.,0.,0.));
#299=DIRECTION('',(0.,0.,1.));
#300=DIRECTION('',(-1.,0.,0.));
#301=DIRECTION('center_axis',(0.,-1.,0.));
#302=DIRECTION('ref_axis',(1.,0.,0.));
#303=DIRECTION('',(0.,0.,1.));
#304=DIRECTION('',(-1.,0.,0.));
#305=DIRECTION('',(0.,0.,1.));
#306=DIRECTION('',(1.,0.,0.));
#307=DIRECTION('center_axis',(1.,0.,0.));
#308=DIRECTION('ref_axis',(0.,1.,0.));
#309=DIRECTION('',(0.,-1.,0.));
#310=DIRECTION('',(0.,1.,0.));
#311=DIRECTION('center_axis',(0.,0.,1.));
#312=DIRECTION('ref_axis',(1.,0.,0.));
#313=DIRECTION('center_axis',(0.,0.,-1.));
#314=DIRECTION('ref_axis',(1.,0.,0.));
#315=DIRECTION('',(0.,0.,-1.));
#316=DIRECTION('center_axis',(0.,0.,-1.));
#317=DIRECTION('ref_axis',(1.,0.,0.));
#318=DIRECTION('center_axis',(0.,0.,1.));
#319=DIRECTION('ref_axis',(1.,0.,0.));
#320=DIRECTION('center_axis',(0.,0.,-1.));
#321=DIRECTION('ref_axis',(1.,0.,0.));
#322=DIRECTION('',(0.342020143325669,4.18853873767699E-17,-0.939692620785908));
#323=DIRECTION('center_axis',(0.,0.,1.));
#324=DIRECTION('ref_axis',(1.,0.,0.));
#325=DIRECTION('center_axis',(0.,0.,1.));
#326=DIRECTION('ref_axis',(1.,0.,0.));
#327=DIRECTION('center_axis',(0.,0.,1.));
#328=DIRECTION('ref_axis',(1.,0.,0.));
#329=DIRECTION('center_axis',(0.,0.,1.));
#330=DIRECTION('ref_axis',(1.,0.,0.));
#331=DIRECTION('',(0.,0.,1.));
#332=DIRECTION('center_axis',(0.,0.,1.));
#333=DIRECTION('ref_axis',(1.,0.,0.));
#334=DIRECTION('center_axis',(0.,0.,1.));
#335=DIRECTION('ref_axis',(1.,0.,0.));
#336=DIRECTION('',(0.,0.,1.));
#337=DIRECTION('center_axis',(0.,0.,1.));
#338=DIRECTION('ref_axis',(1.,0.,0.));
#339=DIRECTION('center_axis',(0.,0.,1.));
#340=DIRECTION('ref_axis',(1.,0.,0.));
#341=DIRECTION('',(-1.,0.,0.));
#342=DIRECTION('',(0.,-1.,0.));
#343=DIRECTION('',(1.,0.,6.12323399573677E-17));
#344=DIRECTION('center_axis',(0.,0.,-1.));
#345=DIRECTION('ref_axis',(1.,0.,0.));
#346=DIRECTION('center_axis',(0.,1.,0.));
#347=DIRECTION('ref_axis',(-1.,0.,0.));
#348=DIRECTION('',(0.,0.,1.));
#349=DIRECTION('',(1.,0.,6.12323399573677E-17));
#350=DIRECTION('center_axis',(-1.,0.,0.));
#351=DIRECTION('ref_axis',(0.,-1.,0.));
#352=DIRECTION('',(0.,0.,1.));
#353=DIRECTION('',(0.,-1.,0.));
#354=DIRECTION('center_axis',(0.,-1.,0.));
#355=DIRECTION('ref_axis',(1.,0.,0.));
#356=DIRECTION('',(1.,0.,0.));
#357=DIRECTION('center_axis',(0.,0.,1.));
#358=DIRECTION('ref_axis',(1.,0.,0.));
#359=DIRECTION('center_axis',(0.,0.,-1.));
#360=DIRECTION('ref_axis',(1.,0.,0.));
#361=DIRECTION('',(0.,0.,-1.));
#362=DIRECTION('center_axis',(0.,0.,1.));
#363=DIRECTION('ref_axis',(1.,0.,0.));
#364=CARTESIAN_POINT('',(0.,0.,0.));
#365=CARTESIAN_POINT('Origin',(12.5,2.,0.));
#366=CARTESIAN_POINT('',(5.65685424949238,2.,0.));
#367=CARTESIAN_POINT('',(5.65685424949238,2.,1.));
#368=CARTESIAN_POINT('',(5.65685424949238,2.,0.));
#369=CARTESIAN_POINT('',(12.5,2.,1.));
#370=CARTESIAN_POINT('',(12.5,2.,1.));
#371=CARTESIAN_POINT('',(12.5,2.,0.));
#372=CARTESIAN_POINT('',(12.5,2.,0.));
#373=CARTESIAN_POINT('',(12.5,2.,0.));
#374=CARTESIAN_POINT('Origin',(3.65685424949238,-2.,0.));
#375=CARTESIAN_POINT('',(5.65685424949238,-2.,0.));
#376=CARTESIAN_POINT('',(5.65685424949238,-2.,1.));
#377=CARTESIAN_POINT('',(5.65685424949238,-2.,0.));
#378=CARTESIAN_POINT('',(12.5,-2.,0.));
#379=CARTESIAN_POINT('',(12.5,-2.,0.));
#380=CARTESIAN_POINT('',(12.5,-2.,1.));
#381=CARTESIAN_POINT('',(12.5,-2.,0.));
#382=CARTESIAN_POINT('',(12.5,-2.,1.));
#383=CARTESIAN_POINT('Origin',(12.5,-2.,0.));
#384=CARTESIAN_POINT('',(12.5,0.,0.));
#385=CARTESIAN_POINT('',(12.5,0.,1.));
#386=CARTESIAN_POINT('Origin',(10.,0.,0.));
#387=CARTESIAN_POINT('',(9.,-1.22464679914735E-16,1.));
#388=CARTESIAN_POINT('Origin',(10.,0.,1.));
#389=CARTESIAN_POINT('',(9.,-1.22464679914735E-16,0.));
#390=CARTESIAN_POINT('',(9.,-1.22464679914735E-16,0.));
#391=CARTESIAN_POINT('Origin',(10.,0.,0.));
#392=CARTESIAN_POINT('Origin',(0.,0.,1.));
#393=CARTESIAN_POINT('',(-5.25,-6.42939569552361E-16,1.));
#394=CARTESIAN_POINT('Origin',(0.,0.,1.));
#395=CARTESIAN_POINT('',(-4.8860297657338,-5.98366071314459E-16,0.));
#396=CARTESIAN_POINT('',(-5.25,-6.42939569552361E-16,1.));
#397=CARTESIAN_POINT('Origin',(0.,0.,0.));
#398=CARTESIAN_POINT('Origin',(0.,0.,0.));
#399=CARTESIAN_POINT('',(-5.65685424949238,-2.,0.));
#400=CARTESIAN_POINT('Origin',(0.,0.,0.));
#401=CARTESIAN_POINT('',(-5.65685424949238,-2.,1.));
#402=CARTESIAN_POINT('Origin',(0.,0.,1.));
#403=CARTESIAN_POINT('',(-5.65685424949238,-2.,0.));
#404=CARTESIAN_POINT('Origin',(0.,0.,0.));
#405=CARTESIAN_POINT('',(-5.65685424949238,2.,0.));
#406=CARTESIAN_POINT('Origin',(0.,0.,0.));
#407=CARTESIAN_POINT('',(-5.65685424949238,2.,1.));
#408=CARTESIAN_POINT('',(-5.65685424949238,2.,0.));
#409=CARTESIAN_POINT('Origin',(0.,0.,1.));
#410=CARTESIAN_POINT('Origin',(-2.22044604925031E-15,0.,0.));
#411=CARTESIAN_POINT('',(-12.5,-2.,0.));
#412=CARTESIAN_POINT('',(12.5,-2.,0.));
#413=CARTESIAN_POINT('',(-12.5,2.,0.));
#414=CARTESIAN_POINT('',(-12.5,2.,0.));
#415=CARTESIAN_POINT('',(-7.65685424949238,2.,0.));
#416=CARTESIAN_POINT('',(-11.,-1.22464679914735E-16,0.));
#417=CARTESIAN_POINT('Origin',(-10.,0.,0.));
#418=CARTESIAN_POINT('Origin',(-7.65685424949238,2.,0.));
#419=CARTESIAN_POINT('',(-12.5,2.,1.));
#420=CARTESIAN_POINT('',(-12.5,2.,0.));
#421=CARTESIAN_POINT('',(-7.65685424949238,2.,1.));
#422=CARTESIAN_POINT('Origin',(-12.5,2.,0.));
#423=CARTESIAN_POINT('',(-12.5,-2.,1.));
#424=CARTESIAN_POINT('',(-12.5,-2.,0.));
#425=CARTESIAN_POINT('',(-12.5,2.,1.));
#426=CARTESIAN_POINT('Origin',(-12.5,-2.,0.));
#427=CARTESIAN_POINT('',(12.5,-2.,1.));
#428=CARTESIAN_POINT('Origin',(-10.,0.,0.));
#429=CARTESIAN_POINT('',(-11.,-1.22464679914735E-16,1.));
#430=CARTESIAN_POINT('Origin',(-10.,0.,1.));
#431=CARTESIAN_POINT('',(-11.,-1.22464679914735E-16,0.));
#432=CARTESIAN_POINT('Origin',(-2.22044604925031E-15,0.,1.));
#433=UNCERTAINTY_MEASURE_WITH_UNIT(LENGTH_MEASURE(0.01),#437,
'DISTANCE_ACCURACY_VALUE',
'Maximum model space distance between geometric entities at asserted c
onnectivities');
#434=UNCERTAINTY_MEASURE_WITH_UNIT(LENGTH_MEASURE(0.01),#437,
'DISTANCE_ACCURACY_VALUE',
'Maximum model space distance between geometric entities at asserted c
onnectivities');
#435=(
GEOMETRIC_REPRESENTATION_CONTEXT(3)
GLOBAL_UNCERTAINTY_ASSIGNED_CONTEXT((#433))
GLOBAL_UNIT_ASSIGNED_CONTEXT((#437,#439,#440))
REPRESENTATION_CONTEXT('','3D')
);
#436=(
GEOMETRIC_REPRESENTATION_CONTEXT(3)
GLOBAL_UNCERTAINTY_ASSIGNED_CONTEXT((#434))
GLOBAL_UNIT_ASSIGNED_CONTEXT((#437,#439,#440))
REPRESENTATION_CONTEXT('','3D')
);
#437=(
LENGTH_UNIT()
NAMED_UNIT(*)
SI_UNIT(.MILLI.,.METRE.)
);
#438=(
LENGTH_UNIT()
NAMED_UNIT(*)
SI_UNIT($,.METRE.)
);
#439=(
NAMED_UNIT(*)
PLANE_ANGLE_UNIT()
SI_UNIT($,.RADIAN.)
);
#440=(
NAMED_UNIT(*)
SI_UNIT($,.STERADIAN.)
SOLID_ANGLE_UNIT()
);
#441=SHAPE_DEFINITION_REPRESENTATION(#442,#443);
#442=PRODUCT_DEFINITION_SHAPE('',$,#445);
#443=SHAPE_REPRESENTATION('',(#269),#435);
#444=PRODUCT_DEFINITION_CONTEXT('part definition',#449,'design');
#445=PRODUCT_DEFINITION('Cerebellum_Headplate_old',
'Cerebellum_Headplate_old v2',#446,#444);
#446=PRODUCT_DEFINITION_FORMATION('',$,#451);
#447=PRODUCT_RELATED_PRODUCT_CATEGORY('Cerebellum_Headplate_old v2',
'Cerebellum_Headplate_old v2',(#451));
#448=APPLICATION_PROTOCOL_DEFINITION('international standard',
'automotive_design',2009,#449);
#449=APPLICATION_CONTEXT(
'Core Data for Automotive Mechanical Design Process');
#450=PRODUCT_CONTEXT('part definition',#449,'mechanical');
#451=PRODUCT('Cerebellum_Headplate_old','Cerebellum_Headplate_old v2',$,
(#450));
#452=PRESENTATION_STYLE_ASSIGNMENT((#453));
#453=SURFACE_STYLE_USAGE(.BOTH.,#454);
#454=SURFACE_SIDE_STYLE('',(#455));
#455=SURFACE_STYLE_FILL_AREA(#456);
#456=FILL_AREA_STYLE('Steel - Satin',(#457));
#457=FILL_AREA_STYLE_COLOUR('Steel - Satin',#458);
#458=COLOUR_RGB('Steel - Satin',0.627450980392157,0.627450980392157,0.627450980392157);
ENDSEC;
END-ISO-10303-21;
