ISO-10303-21;
HEADER;
/* Generated by software containing ST-Developer
 * from STEP Tools, Inc. (www.steptools.com) 
 */

FILE_DESCRIPTION(
/* description */ (''),
/* implementation_level */ '2;1');

FILE_NAME(
/* name */ 'Cerebellum_Headplate_new v5.step',
/* time_stamp */ '2025-10-29T09:46:32+01:00',
/* author */ (''),
/* organization */ (''),
/* preprocessor_version */ 'ST-DEVELOPER v20.1',
/* originating_system */ 'Autodesk Translation Framework v14.17.0.0',
/* authorisation */ '');

FILE_SCHEMA (('AUTOMOTIVE_DESIGN { 1 0 10303 214 3 1 1 }'));
ENDSEC;

DATA;
#10=MECHANICAL_DESIGN_GEOMETRIC_PRESENTATION_REPRESENTATION('',(#13),#436);
#11=SHAPE_REPRESENTATION_RELATIONSHIP('SRR','None',#443,#12);
#12=ADVANCED_BREP_SHAPE_REPRESENTATION('',(#14),#435);
#13=STYLED_ITEM('',(#452),#14);
#14=MANIFOLD_SOLID_BREP('Body1',#256);
#15=FACE_BOUND('',#58,.T.);
#16=FACE_BOUND('',#59,.T.);
#17=FACE_BOUND('',#60,.T.);
#18=FACE_BOUND('',#62,.T.);
#19=FACE_BOUND('',#63,.T.);
#20=FACE_BOUND('',#64,.T.);
#21=PLANE('',#279);
#22=PLANE('',#280);
#23=PLANE('',#284);
#24=PLANE('',#285);
#25=PLANE('',#286);
#26=PLANE('',#290);
#27=PLANE('',#291);
#28=PLANE('',#292);
#29=CYLINDRICAL_SURFACE('',#273,0.999999999999999);
#30=CYLINDRICAL_SURFACE('',#276,1.);
#31=CYLINDRICAL_SURFACE('',#281,6.);
#32=CYLINDRICAL_SURFACE('',#287,6.);
#33=FACE_OUTER_BOUND('',#46,.T.);
#34=FACE_OUTER_BOUND('',#47,.T.);
#35=FACE_OUTER_BOUND('',#48,.T.);
#36=FACE_OUTER_BOUND('',#49,.T.);
#37=FACE_OUTER_BOUND('',#50,.T.);
#38=FACE_OUTER_BOUND('',#51,.T.);
#39=FACE_OUTER_BOUND('',#52,.T.);
#40=FACE_OUTER_BOUND('',#53,.T.);
#41=FACE_OUTER_BOUND('',#54,.T.);
#42=FACE_OUTER_BOUND('',#55,.T.);
#43=FACE_OUTER_BOUND('',#56,.T.);
#44=FACE_OUTER_BOUND('',#57,.T.);
#45=FACE_OUTER_BOUND('',#61,.T.);
#46=EDGE_LOOP('',(#176,#177,#178,#179));
#47=EDGE_LOOP('',(#180,#181,#182,#183));
#48=EDGE_LOOP('',(#184,#185,#186,#187));
#49=EDGE_LOOP('',(#188,#189,#190,#191));
#50=EDGE_LOOP('',(#192,#193,#194,#195));
#51=EDGE_LOOP('',(#196,#197,#198,#199));
#52=EDGE_LOOP('',(#200,#201,#202,#203));
#53=EDGE_LOOP('',(#204,#205,#206,#207));
#54=EDGE_LOOP('',(#208,#209,#210,#211));
#55=EDGE_LOOP('',(#212,#213,#214,#215));
#56=EDGE_LOOP('',(#216,#217,#218,#219));
#57=EDGE_LOOP('',(#220,#221,#222,#223,#224,#225,#226,#227));
#58=EDGE_LOOP('',(#228));
#59=EDGE_LOOP('',(#229));
#60=EDGE_LOOP('',(#230));
#61=EDGE_LOOP('',(#231,#232,#233,#234,#235,#236,#237,#238));
#62=EDGE_LOOP('',(#239));
#63=EDGE_LOOP('',(#240));
#64=EDGE_LOOP('',(#241));
#65=LINE('',#369,#88);
#66=LINE('',#375,#89);
#67=LINE('',#381,#90);
#68=LINE('',#386,#91);
#69=LINE('',#388,#92);
#70=LINE('',#390,#93);
#71=LINE('',#391,#94);
#72=LINE('',#394,#95);
#73=LINE('',#396,#96);
#74=LINE('',#397,#97);
#75=LINE('',#403,#98);
#76=LINE('',#406,#99);
#77=LINE('',#408,#100);
#78=LINE('',#409,#101);
#79=LINE('',#412,#102);
#80=LINE('',#414,#103);
#81=LINE('',#415,#104);
#82=LINE('',#418,#105);
#83=LINE('',#420,#106);
#84=LINE('',#421,#107);
#85=LINE('',#427,#108);
#86=LINE('',#429,#109);
#87=LINE('',#430,#110);
#88=VECTOR('',#299,5.25);
#89=VECTOR('',#306,0.999999999999999);
#90=VECTOR('',#313,1.);
#91=VECTOR('',#318,10.);
#92=VECTOR('',#319,10.);
#93=VECTOR('',#320,10.);
#94=VECTOR('',#321,10.);
#95=VECTOR('',#324,10.);
#96=VECTOR('',#325,10.);
#97=VECTOR('',#326,10.);
#98=VECTOR('',#333,10.);
#99=VECTOR('',#336,10.);
#100=VECTOR('',#337,10.);
#101=VECTOR('',#338,10.);
#102=VECTOR('',#341,10.);
#103=VECTOR('',#342,10.);
#104=VECTOR('',#343,10.);
#105=VECTOR('',#346,10.);
#106=VECTOR('',#347,10.);
#107=VECTOR('',#348,10.);
#108=VECTOR('',#355,10.);
#109=VECTOR('',#358,10.);
#110=VECTOR('',#359,10.);
#111=CIRCLE('',#271,5.25);
#112=CIRCLE('',#272,4.8860297657338);
#113=CIRCLE('',#274,0.999999999999999);
#114=CIRCLE('',#275,0.999999999999999);
#115=CIRCLE('',#277,1.);
#116=CIRCLE('',#278,1.);
#117=CIRCLE('',#282,6.);
#118=CIRCLE('',#283,6.);
#119=CIRCLE('',#288,6.);
#120=CIRCLE('',#289,6.);
#121=VERTEX_POINT('',#366);
#122=VERTEX_POINT('',#368);
#123=VERTEX_POINT('',#372);
#124=VERTEX_POINT('',#374);
#125=VERTEX_POINT('',#378);
#126=VERTEX_POINT('',#380);
#127=VERTEX_POINT('',#384);
#128=VERTEX_POINT('',#385);
#129=VERTEX_POINT('',#387);
#130=VERTEX_POINT('',#389);
#131=VERTEX_POINT('',#393);
#132=VERTEX_POINT('',#395);
#133=VERTEX_POINT('',#399);
#134=VERTEX_POINT('',#401);
#135=VERTEX_POINT('',#405);
#136=VERTEX_POINT('',#407);
#137=VERTEX_POINT('',#411);
#138=VERTEX_POINT('',#413);
#139=VERTEX_POINT('',#417);
#140=VERTEX_POINT('',#419);
#141=VERTEX_POINT('',#423);
#142=VERTEX_POINT('',#425);
#143=EDGE_CURVE('',#121,#121,#111,.T.);
#144=EDGE_CURVE('',#121,#122,#65,.T.);
#145=EDGE_CURVE('',#122,#122,#112,.F.);
#146=EDGE_CURVE('',#123,#123,#113,.T.);
#147=EDGE_CURVE('',#123,#124,#66,.T.);
#148=EDGE_CURVE('',#124,#124,#114,.T.);
#149=EDGE_CURVE('',#125,#125,#115,.T.);
#150=EDGE_CURVE('',#125,#126,#67,.T.);
#151=EDGE_CURVE('',#126,#126,#116,.T.);
#152=EDGE_CURVE('',#127,#128,#68,.T.);
#153=EDGE_CURVE('',#127,#129,#69,.T.);
#154=EDGE_CURVE('',#130,#129,#70,.T.);
#155=EDGE_CURVE('',#128,#130,#71,.T.);
#156=EDGE_CURVE('',#128,#131,#72,.T.);
#157=EDGE_CURVE('',#132,#130,#73,.T.);
#158=EDGE_CURVE('',#131,#132,#74,.T.);
#159=EDGE_CURVE('',#133,#131,#117,.T.);
#160=EDGE_CURVE('',#134,#132,#118,.T.);
#161=EDGE_CURVE('',#133,#134,#75,.T.);
#162=EDGE_CURVE('',#133,#135,#76,.T.);
#163=EDGE_CURVE('',#136,#134,#77,.T.);
#164=EDGE_CURVE('',#135,#136,#78,.T.);
#165=EDGE_CURVE('',#137,#135,#79,.T.);
#166=EDGE_CURVE('',#138,#136,#80,.T.);
#167=EDGE_CURVE('',#137,#138,#81,.T.);
#168=EDGE_CURVE('',#139,#137,#82,.T.);
#169=EDGE_CURVE('',#140,#138,#83,.T.);
#170=EDGE_CURVE('',#139,#140,#84,.T.);
#171=EDGE_CURVE('',#141,#139,#119,.T.);
#172=EDGE_CURVE('',#142,#140,#120,.T.);
#173=EDGE_CURVE('',#141,#142,#85,.T.);
#174=EDGE_CURVE('',#127,#141,#86,.T.);
#175=EDGE_CURVE('',#129,#142,#87,.T.);
#176=ORIENTED_EDGE('',*,*,#143,.F.);
#177=ORIENTED_EDGE('',*,*,#144,.T.);
#178=ORIENTED_EDGE('',*,*,#145,.T.);
#179=ORIENTED_EDGE('',*,*,#144,.F.);
#180=ORIENTED_EDGE('',*,*,#146,.F.);
#181=ORIENTED_EDGE('',*,*,#147,.T.);
#182=ORIENTED_EDGE('',*,*,#148,.T.);
#183=ORIENTED_EDGE('',*,*,#147,.F.);
#184=ORIENTED_EDGE('',*,*,#149,.F.);
#185=ORIENTED_EDGE('',*,*,#150,.T.);
#186=ORIENTED_EDGE('',*,*,#151,.T.);
#187=ORIENTED_EDGE('',*,*,#150,.F.);
#188=ORIENTED_EDGE('',*,*,#152,.F.);
#189=ORIENTED_EDGE('',*,*,#153,.T.);
#190=ORIENTED_EDGE('',*,*,#154,.F.);
#191=ORIENTED_EDGE('',*,*,#155,.F.);
#192=ORIENTED_EDGE('',*,*,#156,.F.);
#193=ORIENTED_EDGE('',*,*,#155,.T.);
#194=ORIENTED_EDGE('',*,*,#157,.F.);
#195=ORIENTED_EDGE('',*,*,#158,.F.);
#196=ORIENTED_EDGE('',*,*,#159,.T.);
#197=ORIENTED_EDGE('',*,*,#158,.T.);
#198=ORIENTED_EDGE('',*,*,#160,.F.);
#199=ORIENTED_EDGE('',*,*,#161,.F.);
#200=ORIENTED_EDGE('',*,*,#162,.F.);
#201=ORIENTED_EDGE('',*,*,#161,.T.);
#202=ORIENTED_EDGE('',*,*,#163,.F.);
#203=ORIENTED_EDGE('',*,*,#164,.F.);
#204=ORIENTED_EDGE('',*,*,#165,.T.);
#205=ORIENTED_EDGE('',*,*,#164,.T.);
#206=ORIENTED_EDGE('',*,*,#166,.F.);
#207=ORIENTED_EDGE('',*,*,#167,.F.);
#208=ORIENTED_EDGE('',*,*,#168,.T.);
#209=ORIENTED_EDGE('',*,*,#167,.T.);
#210=ORIENTED_EDGE('',*,*,#169,.F.);
#211=ORIENTED_EDGE('',*,*,#170,.F.);
#212=ORIENTED_EDGE('',*,*,#171,.T.);
#213=ORIENTED_EDGE('',*,*,#170,.T.);
#214=ORIENTED_EDGE('',*,*,#172,.F.);
#215=ORIENTED_EDGE('',*,*,#173,.F.);
#216=ORIENTED_EDGE('',*,*,#174,.T.);
#217=ORIENTED_EDGE('',*,*,#173,.T.);
#218=ORIENTED_EDGE('',*,*,#175,.F.);
#219=ORIENTED_EDGE('',*,*,#153,.F.);
#220=ORIENTED_EDGE('',*,*,#175,.T.);
#221=ORIENTED_EDGE('',*,*,#172,.T.);
#222=ORIENTED_EDGE('',*,*,#169,.T.);
#223=ORIENTED_EDGE('',*,*,#166,.T.);
#224=ORIENTED_EDGE('',*,*,#163,.T.);
#225=ORIENTED_EDGE('',*,*,#160,.T.);
#226=ORIENTED_EDGE('',*,*,#157,.T.);
#227=ORIENTED_EDGE('',*,*,#154,.T.);
#228=ORIENTED_EDGE('',*,*,#149,.T.);
#229=ORIENTED_EDGE('',*,*,#146,.T.);
#230=ORIENTED_EDGE('',*,*,#143,.T.);
#231=ORIENTED_EDGE('',*,*,#174,.F.);
#232=ORIENTED_EDGE('',*,*,#152,.T.);
#233=ORIENTED_EDGE('',*,*,#156,.T.);
#234=ORIENTED_EDGE('',*,*,#159,.F.);
#235=ORIENTED_EDGE('',*,*,#162,.T.);
#236=ORIENTED_EDGE('',*,*,#165,.F.);
#237=ORIENTED_EDGE('',*,*,#168,.F.);
#238=ORIENTED_EDGE('',*,*,#171,.F.);
#239=ORIENTED_EDGE('',*,*,#151,.F.);
#240=ORIENTED_EDGE('',*,*,#148,.F.);
#241=ORIENTED_EDGE('',*,*,#145,.F.);
#242=CONICAL_SURFACE('',#270,5.25,0.349065850398866);
#243=ADVANCED_FACE('',(#33),#242,.F.);
#244=ADVANCED_FACE('',(#34),#29,.F.);
#245=ADVANCED_FACE('',(#35),#30,.F.);
#246=ADVANCED_FACE('',(#36),#21,.T.);
#247=ADVANCED_FACE('',(#37),#22,.T.);
#248=ADVANCED_FACE('',(#38),#31,.T.);
#249=ADVANCED_FACE('',(#39),#23,.T.);
#250=ADVANCED_FACE('',(#40),#24,.T.);
#251=ADVANCED_FACE('',(#41),#25,.T.);
#252=ADVANCED_FACE('',(#42),#32,.T.);
#253=ADVANCED_FACE('',(#43),#26,.T.);
#254=ADVANCED_FACE('',(#44,#15,#16,#17),#27,.T.);
#255=ADVANCED_FACE('',(#45,#18,#19,#20),#28,.F.);
#256=CLOSED_SHELL('',(#243,#244,#245,#246,#247,#248,#249,#250,#251,#252,
#253,#254,#255));
#257=DERIVED_UNIT_ELEMENT(#259,1.);
#258=DERIVED_UNIT_ELEMENT(#438,-3.);
#259=(
MASS_UNIT()
NAMED_UNIT(*)
SI_UNIT(.KILO.,.GRAM.)
);
#260=DERIVED_UNIT((#257,#258));
#261=MEASURE_REPRESENTATION_ITEM('density measure',
POSITIVE_RATIO_MEASURE(7850.),#260);
#262=PROPERTY_DEFINITION_REPRESENTATION(#267,#264);
#263=PROPERTY_DEFINITION_REPRESENTATION(#268,#265);
#264=REPRESENTATION('material name',(#266),#435);
#265=REPRESENTATION('density',(#261),#435);
#266=DESCRIPTIVE_REPRESENTATION_ITEM('Steel','Steel');
#267=PROPERTY_DEFINITION('material property','material name',#445);
#268=PROPERTY_DEFINITION('material property','density of part',#445);
#269=AXIS2_PLACEMENT_3D('',#364,#293,#294);
#270=AXIS2_PLACEMENT_3D('',#365,#295,#296);
#271=AXIS2_PLACEMENT_3D('',#367,#297,#298);
#272=AXIS2_PLACEMENT_3D('',#370,#300,#301);
#273=AXIS2_PLACEMENT_3D('',#371,#302,#303);
#274=AXIS2_PLACEMENT_3D('',#373,#304,#305);
#275=AXIS2_PLACEMENT_3D('',#376,#307,#308);
#276=AXIS2_PLACEMENT_3D('',#377,#309,#310);
#277=AXIS2_PLACEMENT_3D('',#379,#311,#312);
#278=AXIS2_PLACEMENT_3D('',#382,#314,#315);
#279=AXIS2_PLACEMENT_3D('',#383,#316,#317);
#280=AXIS2_PLACEMENT_3D('',#392,#322,#323);
#281=AXIS2_PLACEMENT_3D('',#398,#327,#328);
#282=AXIS2_PLACEMENT_3D('',#400,#329,#330);
#283=AXIS2_PLACEMENT_3D('',#402,#331,#332);
#284=AXIS2_PLACEMENT_3D('',#404,#334,#335);
#285=AXIS2_PLACEMENT_3D('',#410,#339,#340);
#286=AXIS2_PLACEMENT_3D('',#416,#344,#345);
#287=AXIS2_PLACEMENT_3D('',#422,#349,#350);
#288=AXIS2_PLACEMENT_3D('',#424,#351,#352);
#289=AXIS2_PLACEMENT_3D('',#426,#353,#354);
#290=AXIS2_PLACEMENT_3D('',#428,#356,#357);
#291=AXIS2_PLACEMENT_3D('',#431,#360,#361);
#292=AXIS2_PLACEMENT_3D('',#432,#362,#363);
#293=DIRECTION('axis',(0.,0.,1.));
#294=DIRECTION('refdir',(1.,0.,0.));
#295=DIRECTION('center_axis',(0.,0.,1.));
#296=DIRECTION('ref_axis',(1.,0.,0.));
#297=DIRECTION('center_axis',(0.,0.,-1.));
#298=DIRECTION('ref_axis',(1.,0.,0.));
#299=DIRECTION('',(0.342020143325669,4.18853873767699E-17,-0.939692620785908));
#300=DIRECTION('center_axis',(0.,0.,1.));
#301=DIRECTION('ref_axis',(1.,0.,0.));
#302=DIRECTION('center_axis',(0.,0.,1.));
#303=DIRECTION('ref_axis',(1.,0.,0.));
#304=DIRECTION('center_axis',(0.,0.,-1.));
#305=DIRECTION('ref_axis',(1.,0.,0.));
#306=DIRECTION('',(0.,0.,-1.));
#307=DIRECTION('center_axis',(0.,0.,-1.));
#308=DIRECTION('ref_axis',(1.,0.,0.));
#309=DIRECTION('center_axis',(0.,0.,1.));
#310=DIRECTION('ref_axis',(1.,0.,0.));
#311=DIRECTION('center_axis',(0.,0.,-1.));
#312=DIRECTION('ref_axis',(1.,0.,0.));
#313=DIRECTION('',(0.,0.,-1.));
#314=DIRECTION('center_axis',(0.,0.,-1.));
#315=DIRECTION('ref_axis',(1.,0.,0.));
#316=DIRECTION('center_axis',(1.,0.,0.));
#317=DIRECTION('ref_axis',(0.,1.,0.));
#318=DIRECTION('',(0.,-1.,0.));
#319=DIRECTION('',(0.,0.,1.));
#320=DIRECTION('',(0.,1.,0.));
#321=DIRECTION('',(0.,0.,1.));
#322=DIRECTION('center_axis',(0.,-1.,0.));
#323=DIRECTION('ref_axis',(1.,0.,0.));
#324=DIRECTION('',(-1.,0.,0.));
#325=DIRECTION('',(1.,0.,0.));
#326=DIRECTION('',(0.,0.,1.));
#327=DIRECTION('center_axis',(0.,0.,1.));
#328=DIRECTION('ref_axis',(1.,0.,0.));
#329=DIRECTION('center_axis',(0.,0.,1.));
#330=DIRECTION('ref_axis',(1.,0.,0.));
#331=DIRECTION('center_axis',(0.,0.,1.));
#332=DIRECTION('ref_axis',(1.,0.,0.));
#333=DIRECTION('',(0.,0.,1.));
#334=DIRECTION('center_axis',(0.,-1.,0.));
#335=DIRECTION('ref_axis',(1.,0.,0.));
#336=DIRECTION('',(-1.,0.,0.));
#337=DIRECTION('',(1.,0.,0.));
#338=DIRECTION('',(0.,0.,1.));
#339=DIRECTION('center_axis',(-1.,0.,0.));
#340=DIRECTION('ref_axis',(0.,-1.,0.));
#341=DIRECTION('',(0.,-1.,0.));
#342=DIRECTION('',(0.,-1.,0.));
#343=DIRECTION('',(0.,0.,1.));
#344=DIRECTION('center_axis',(0.,1.,0.));
#345=DIRECTION('ref_axis',(-1.,0.,0.));
#346=DIRECTION('',(-1.,0.,0.));
#347=DIRECTION('',(-1.,0.,0.));
#348=DIRECTION('',(0.,0.,1.));
#349=DIRECTION('center_axis',(0.,0.,1.));
#350=DIRECTION('ref_axis',(1.,0.,0.));
#351=DIRECTION('center_axis',(0.,0.,1.));
#352=DIRECTION('ref_axis',(1.,0.,0.));
#353=DIRECTION('center_axis',(0.,0.,1.));
#354=DIRECTION('ref_axis',(1.,0.,0.));
#355=DIRECTION('',(0.,0.,1.));
#356=DIRECTION('center_axis',(0.,1.,0.));
#357=DIRECTION('ref_axis',(-1.,0.,0.));
#358=DIRECTION('',(-1.,0.,0.));
#359=DIRECTION('',(-1.,0.,0.));
#360=DIRECTION('center_axis',(0.,0.,1.));
#361=DIRECTION('ref_axis',(1.,0.,0.));
#362=DIRECTION('center_axis',(0.,0.,1.));
#363=DIRECTION('ref_axis',(1.,0.,0.));
#364=CARTESIAN_POINT('',(0.,0.,0.));
#365=CARTESIAN_POINT('Origin',(-2.,0.,1.));
#366=CARTESIAN_POINT('',(-7.25,-6.42939569552361E-16,1.));
#367=CARTESIAN_POINT('Origin',(-2.,0.,1.));
#368=CARTESIAN_POINT('',(-6.8860297657338,-5.98366071314459E-16,0.));
#369=CARTESIAN_POINT('',(-7.25,-6.42939569552361E-16,1.));
#370=CARTESIAN_POINT('Origin',(-2.,0.,0.));
#371=CARTESIAN_POINT('Origin',(10.,0.,0.));
#372=CARTESIAN_POINT('',(9.,-1.22464679914735E-16,1.));
#373=CARTESIAN_POINT('Origin',(10.,0.,1.));
#374=CARTESIAN_POINT('',(9.,-1.22464679914735E-16,0.));
#375=CARTESIAN_POINT('',(9.,-1.22464679914735E-16,0.));
#376=CARTESIAN_POINT('Origin',(10.,0.,0.));
#377=CARTESIAN_POINT('Origin',(-10.,0.,0.));
#378=CARTESIAN_POINT('',(-11.,-1.22464679914735E-16,1.));
#379=CARTESIAN_POINT('Origin',(-10.,0.,1.));
#380=CARTESIAN_POINT('',(-11.,-1.22464679914735E-16,0.));
#381=CARTESIAN_POINT('',(-11.,-1.22464679914735E-16,0.));
#382=CARTESIAN_POINT('Origin',(-10.,0.,0.));
#383=CARTESIAN_POINT('Origin',(12.5,-2.,0.));
#384=CARTESIAN_POINT('',(12.5,2.,0.));
#385=CARTESIAN_POINT('',(12.5,-2.,0.));
#386=CARTESIAN_POINT('',(12.5,0.,0.));
#387=CARTESIAN_POINT('',(12.5,2.,1.));
#388=CARTESIAN_POINT('',(12.5,2.,0.));
#389=CARTESIAN_POINT('',(12.5,-2.,1.));
#390=CARTESIAN_POINT('',(12.5,0.,1.));
#391=CARTESIAN_POINT('',(12.5,-2.,0.));
#392=CARTESIAN_POINT('Origin',(3.65685424949238,-2.,0.));
#393=CARTESIAN_POINT('',(3.65685424949238,-2.,0.));
#394=CARTESIAN_POINT('',(12.5,-2.,0.));
#395=CARTESIAN_POINT('',(3.65685424949238,-2.,1.));
#396=CARTESIAN_POINT('',(12.5,-2.,1.));
#397=CARTESIAN_POINT('',(3.65685424949238,-2.,0.));
#398=CARTESIAN_POINT('Origin',(-2.,0.,0.));
#399=CARTESIAN_POINT('',(-7.65685424949238,-2.,0.));
#400=CARTESIAN_POINT('Origin',(-2.,0.,0.));
#401=CARTESIAN_POINT('',(-7.65685424949238,-2.,1.));
#402=CARTESIAN_POINT('Origin',(-2.,0.,1.));
#403=CARTESIAN_POINT('',(-7.65685424949238,-2.,0.));
#404=CARTESIAN_POINT('Origin',(-12.5,-2.,0.));
#405=CARTESIAN_POINT('',(-12.5,-2.,0.));
#406=CARTESIAN_POINT('',(12.5,-2.,0.));
#407=CARTESIAN_POINT('',(-12.5,-2.,1.));
#408=CARTESIAN_POINT('',(12.5,-2.,1.));
#409=CARTESIAN_POINT('',(-12.5,-2.,0.));
#410=CARTESIAN_POINT('Origin',(-12.5,2.,0.));
#411=CARTESIAN_POINT('',(-12.5,2.,0.));
#412=CARTESIAN_POINT('',(-12.5,2.,0.));
#413=CARTESIAN_POINT('',(-12.5,2.,1.));
#414=CARTESIAN_POINT('',(-12.5,2.,1.));
#415=CARTESIAN_POINT('',(-12.5,2.,0.));
#416=CARTESIAN_POINT('Origin',(-7.65685424949238,2.,0.));
#417=CARTESIAN_POINT('',(-7.65685424949238,2.,0.));
#418=CARTESIAN_POINT('',(12.5,2.,0.));
#419=CARTESIAN_POINT('',(-7.65685424949238,2.,1.));
#420=CARTESIAN_POINT('',(12.5,2.,1.));
#421=CARTESIAN_POINT('',(-7.65685424949238,2.,0.));
#422=CARTESIAN_POINT('Origin',(-2.,0.,0.));
#423=CARTESIAN_POINT('',(3.65685424949238,2.,0.));
#424=CARTESIAN_POINT('Origin',(-2.,0.,0.));
#425=CARTESIAN_POINT('',(3.65685424949238,2.,1.));
#426=CARTESIAN_POINT('Origin',(-2.,0.,1.));
#427=CARTESIAN_POINT('',(3.65685424949238,2.,0.));
#428=CARTESIAN_POINT('Origin',(12.5,2.,0.));
#429=CARTESIAN_POINT('',(12.5,2.,0.));
#430=CARTESIAN_POINT('',(12.5,2.,1.));
#431=CARTESIAN_POINT('Origin',(-2.22044604925031E-15,0.,1.));
#432=CARTESIAN_POINT('Origin',(-2.22044604925031E-15,0.,0.));
#433=UNCERTAINTY_MEASURE_WITH_UNIT(LENGTH_MEASURE(0.01),#437,
'DISTANCE_ACCURACY_VALUE',
'Maximum model space distance between geometric entities at asserted c
onnectivities');
#434=UNCERTAINTY_MEASURE_WITH_UNIT(LENGTH_MEASURE(0.01),#437,
'DISTANCE_ACCURACY_VALUE',
'Maximum model space distance between geometric entities at asserted c
onnectivities');
#435=(
GEOMETRIC_REPRESENTATION_CONTEXT(3)
GLOBAL_UNCERTAINTY_ASSIGNED_CONTEXT((#433))
GLOBAL_UNIT_ASSIGNED_CONTEXT((#437,#439,#440))
REPRESENTATION_CONTEXT('','3D')
);
#436=(
GEOMETRIC_REPRESENTATION_CONTEXT(3)
GLOBAL_UNCERTAINTY_ASSIGNED_CONTEXT((#434))
GLOBAL_UNIT_ASSIGNED_CONTEXT((#437,#439,#440))
REPRESENTATION_CONTEXT('','3D')
);
#437=(
LENGTH_UNIT()
NAMED_UNIT(*)
SI_UNIT(.MILLI.,.METRE.)
);
#438=(
LENGTH_UNIT()
NAMED_UNIT(*)
SI_UNIT($,.METRE.)
);
#439=(
NAMED_UNIT(*)
PLANE_ANGLE_UNIT()
SI_UNIT($,.RADIAN.)
);
#440=(
NAMED_UNIT(*)
SI_UNIT($,.STERADIAN.)
SOLID_ANGLE_UNIT()
);
#441=SHAPE_DEFINITION_REPRESENTATION(#442,#443);
#442=PRODUCT_DEFINITION_SHAPE('',$,#445);
#443=SHAPE_REPRESENTATION('',(#269),#435);
#444=PRODUCT_DEFINITION_CONTEXT('part definition',#449,'design');
#445=PRODUCT_DEFINITION('Cerebellum_Headplate_new',
'Cerebellum_Headplate_new v5',#446,#444);
#446=PRODUCT_DEFINITION_FORMATION('',$,#451);
#447=PRODUCT_RELATED_PRODUCT_CATEGORY('Cerebellum_Headplate_new v5',
'Cerebellum_Headplate_new v5',(#451));
#448=APPLICATION_PROTOCOL_DEFINITION('international standard',
'automotive_design',2009,#449);
#449=APPLICATION_CONTEXT(
'Core Data for Automotive Mechanical Design Process');
#450=PRODUCT_CONTEXT('part definition',#449,'mechanical');
#451=PRODUCT('Cerebellum_Headplate_new','Cerebellum_Headplate_new v5',$,
(#450));
#452=PRESENTATION_STYLE_ASSIGNMENT((#453));
#453=SURFACE_STYLE_USAGE(.BOTH.,#454);
#454=SURFACE_SIDE_STYLE('',(#455));
#455=SURFACE_STYLE_FILL_AREA(#456);
#456=FILL_AREA_STYLE('Steel - Satin',(#457));
#457=FILL_AREA_STYLE_COLOUR('Steel - Satin',#458);
#458=COLOUR_RGB('Steel - Satin',0.627450980392157,0.627450980392157,0.627450980392157);
ENDSEC;
END-ISO-10303-21;
